<svg width="25" height="25" viewBox="0 0 25 25" fill="none" xmlns="http://www.w3.org/2000/svg">
<path d="M12.06 23.12C18.1683 23.12 23.12 18.1683 23.12 12.06C23.12 5.95173 18.1683 1 12.06 1C5.95173 1 1 5.95173 1 12.06C1 18.1683 5.95173 23.12 12.06 23.12Z" stroke="#475467" stroke-width="2" stroke-linecap="round" stroke-linejoin="round"/>
<path d="M7.636 9.4056C7.636 8.78618 7.636 8.47647 7.75655 8.23989C7.86258 8.03178 8.03178 7.86258 8.23989 7.75655C8.47647 7.636 8.78618 7.636 9.4056 7.636H14.7144C15.3338 7.636 15.6435 7.636 15.8801 7.75655C16.0882 7.86258 16.2574 8.03178 16.3635 8.23989C16.484 8.47647 16.484 8.78618 16.484 9.4056V14.7144C16.484 15.3338 16.484 15.6435 16.3635 15.8801C16.2574 16.0882 16.0882 16.2574 15.8801 16.3635C15.6435 16.484 15.3338 16.484 14.7144 16.484H9.4056C8.78618 16.484 8.47647 16.484 8.23989 16.3635C8.03178 16.2574 7.86258 16.0882 7.75655 15.8801C7.636 15.6435 7.636 15.3338 7.636 14.7144V9.4056Z" stroke="#475467" stroke-width="2" stroke-linecap="round" stroke-linejoin="round"/>
</svg>
