<svg width="16" height="16" viewBox="0 0 16 16" fill="none" xmlns="http://www.w3.org/2000/svg">
<path d="M6.94056 4.17762C7.5869 3.53128 7.5869 2.48337 6.94056 1.83703C6.29423 1.1907 5.24631 1.1907 4.59998 1.83703C3.95364 2.48337 3.95364 3.53128 4.59998 4.17762C5.24631 4.82395 6.29423 4.82395 6.94056 4.17762Z" stroke="#475467" stroke-width="1.5" stroke-miterlimit="10"/>
<path d="M6.94056 14.163C7.5869 13.5166 7.5869 12.4687 6.94056 11.8224C6.29423 11.176 5.24631 11.176 4.59998 11.8224C3.95364 12.4687 3.95364 13.5166 4.59998 14.163C5.24631 14.8093 6.29423 14.8093 6.94056 14.163Z" stroke="#475467" stroke-width="1.5" stroke-miterlimit="10"/>
<path d="M12.7333 4.17762C13.3796 3.53128 13.3796 2.48337 12.7333 1.83703C12.087 1.1907 11.039 1.1907 10.3927 1.83703C9.74637 2.48337 9.74637 3.53128 10.3927 4.17762C11.039 4.82395 12.087 4.82395 12.7333 4.17762Z" stroke="#475467" stroke-width="1.5" stroke-miterlimit="10"/>
<path d="M5.77039 4.66235V11.3378" stroke="#475467" stroke-width="1.5" stroke-miterlimit="10"/>
<path d="M11.5631 4.66235V6.345C11.5631 7.25906 10.8221 8.00005 9.90803 8.00005H7.42544C6.51138 8.00005 5.77039 8.74105 5.77039 9.65511" stroke="#475467" stroke-width="1.5" stroke-miterlimit="10"/>
</svg>
