<svg width="18" height="20" viewBox="0 0 18 20" fill="none" xmlns="http://www.w3.org/2000/svg">
<path d="M15.1663 8.74984V5.6665C15.1663 4.26637 15.1663 3.56631 14.8939 3.03153C14.6542 2.56112 14.2717 2.17867 13.8013 1.93899C13.2665 1.6665 12.5665 1.6665 11.1663 1.6665H5.83301C4.43288 1.6665 3.73281 1.6665 3.19803 1.93899C2.72763 2.17867 2.34517 2.56112 2.10549 3.03153C1.83301 3.56631 1.83301 4.26637 1.83301 5.6665V14.3332C1.83301 15.7333 1.83301 16.4334 2.10549 16.9681C2.34517 17.4386 2.72763 17.821 3.19803 18.0607C3.73281 18.3332 4.43288 18.3332 5.83301 18.3332H8.08301M16.833 18.3332L15.583 17.0832M16.4163 14.9998C16.4163 16.6107 15.1105 17.9165 13.4997 17.9165C11.8888 17.9165 10.583 16.6107 10.583 14.9998C10.583 13.389 11.8888 12.0832 13.4997 12.0832C15.1105 12.0832 16.4163 13.389 16.4163 14.9998Z" stroke="#667085" stroke-width="2" stroke-linecap="round" stroke-linejoin="round"/>
</svg>
